<svg width="158" height="37" viewBox="0 0 158 37" fill="none" xmlns="http://www.w3.org/2000/svg">
<path d="M9.96036 2.30454C13.9966 2.30454 17.1214 3.42426 19.3348 5.6637C21.5482 7.90314 22.6549 11.08 22.6549 15.1943C22.6549 19.3087 21.5482 22.4855 19.3348 24.725C17.1214 26.9644 13.9966 28.0841 9.96036 28.0841H5.98904e-05V2.30454H9.96036ZM9.68694 23.7875C12.1347 23.7875 13.9705 23.0584 15.1944 21.6002C16.4443 20.1159 17.0693 17.9806 17.0693 15.1943C17.0693 12.4081 16.4443 10.2858 15.1944 8.82756C13.9705 7.34328 12.1347 6.60114 9.68694 6.60114H5.39034V23.7875H9.68694ZM30.1083 5.74182C27.8949 5.74182 26.7882 4.79135 26.7882 2.89043C26.7882 0.963474 27.8949 -5.6449e-06 30.1083 -5.6449e-06C32.3217 -5.6449e-06 33.4284 0.963474 33.4284 2.89043C33.4284 4.79135 32.3217 5.74182 30.1083 5.74182ZM32.7644 8.55414V28.0841H27.4132V8.55414H32.7644ZM50.0378 24.4125C52.147 24.4125 53.7745 24.8682 54.9203 25.7796C56.066 26.691 56.6389 27.967 56.6389 29.6075C56.6389 31.1178 56.2092 32.3807 55.3499 33.3963C54.4906 34.4119 53.2797 35.18 51.7173 35.7008C50.181 36.2216 48.3972 36.482 46.3661 36.482C43.007 36.482 40.5462 36.0133 38.9838 35.0759C37.4474 34.1384 36.6792 32.9146 36.6792 31.4042C36.6792 30.5189 36.9527 29.7377 37.4995 29.0606C38.0724 28.4096 38.9838 27.9539 40.2337 27.6935C38.489 27.0425 37.6167 25.8187 37.6167 24.0219C37.6167 23.1365 37.8771 22.3553 38.3979 21.6783C38.9447 21.0013 39.6869 20.4935 40.6243 20.155C38.5671 19.0092 37.5386 17.2255 37.5386 14.8037C37.5386 12.7466 38.3328 11.1321 39.9212 9.9603C41.5097 8.76245 43.684 8.16353 46.4442 8.16353C48.0066 8.16353 49.4128 8.37185 50.6627 8.7885C50.845 7.43442 51.3918 6.28866 52.3032 5.35122C53.2146 4.38774 54.4515 3.906 56.0139 3.906C56.066 3.906 56.1311 3.906 56.2092 3.906C56.2874 3.906 56.3655 3.906 56.4436 3.906L57.0686 7.73388C56.8602 7.70784 56.6259 7.69482 56.3655 7.69482C55.376 7.69482 54.5817 7.89012 53.9828 8.28072C53.3839 8.64528 53.0063 9.1791 52.8501 9.88218C54.5166 11.054 55.3499 12.6945 55.3499 14.8037C55.3499 16.8349 54.5427 18.4493 52.9282 19.6472C51.3398 20.819 49.1784 21.4049 46.4442 21.4049C45.2464 21.4049 44.1527 21.3007 43.1632 21.0924C42.5643 21.2486 42.1346 21.483 41.8742 21.7955C41.6399 22.0819 41.5227 22.4074 41.5227 22.772C41.5227 23.8657 42.356 24.4125 44.0225 24.4125H50.0378ZM46.4442 11.5227C45.4026 11.5227 44.5433 11.8091 43.8663 12.382C43.1892 12.9549 42.8507 13.7491 42.8507 14.7647C42.8507 15.7802 43.1892 16.5875 43.8663 17.1864C44.5433 17.7593 45.4026 18.0457 46.4442 18.0457C47.4598 18.0457 48.3061 17.7593 48.9831 17.1864C49.6602 16.5875 49.9987 15.7802 49.9987 14.7647C49.9987 13.7491 49.6602 12.9549 48.9831 12.382C48.3061 11.8091 47.4598 11.5227 46.4442 11.5227ZM46.4052 32.8104C48.4103 32.8104 49.8945 32.563 50.858 32.0683C51.8475 31.5995 52.3423 31.0267 52.3423 30.3496C52.3423 29.8549 52.147 29.4512 51.7564 29.1388C51.3658 28.8523 50.6627 28.7091 49.6472 28.7091H43.046C42.4211 28.7091 41.9003 28.8653 41.4836 29.1778C41.093 29.5163 40.8977 29.946 40.8977 30.4668C40.8977 31.1959 41.3795 31.7688 42.3429 32.1854C43.3325 32.6021 44.6865 32.8104 46.4052 32.8104ZM62.5693 5.74182C60.3559 5.74182 59.2492 4.79135 59.2492 2.89043C59.2492 0.963474 60.3559 -5.6449e-06 62.5693 -5.6449e-06C64.7827 -5.6449e-06 65.8894 0.963474 65.8894 2.89043C65.8894 4.79135 64.7827 5.74182 62.5693 5.74182ZM65.2254 8.55414V28.0841H59.8742V8.55414H65.2254Z" fill="#FF5300"/>
<path d="M79.9599 28.4747C76.8871 28.4747 74.4263 27.5894 72.5775 25.8187C70.7287 24.0219 69.8042 21.5221 69.8042 18.3191C69.8042 16.1839 70.2209 14.3611 71.0542 12.8507C71.8874 11.3404 73.0462 10.1816 74.5305 9.3744C76.0408 8.56715 77.7595 8.16353 79.6864 8.16353C81.6655 8.16353 83.3451 8.56715 84.7252 9.3744C86.1053 10.1556 87.1599 11.2363 87.889 12.6164C88.6182 13.9705 88.9827 15.5198 88.9827 17.2645C88.9827 17.7853 88.9697 18.2801 88.9437 18.7488C88.9176 19.2175 88.8786 19.6342 88.8265 19.9987H75.0383C75.2466 21.509 75.7674 22.6418 76.6007 23.3969C77.46 24.1261 78.5667 24.4906 79.9208 24.4906C81.0666 24.4906 81.991 24.2693 82.6941 23.8266C83.3971 23.3839 83.944 22.772 84.3346 21.9908L88.5921 23.6313C87.9672 25.1677 86.8735 26.3655 85.3111 27.2248C83.7487 28.0581 81.9649 28.4747 79.9599 28.4747ZM79.6474 12.1086C77.1215 12.1086 75.5982 13.5017 75.0773 16.288H83.8659C83.7096 14.9339 83.2669 13.9054 82.5378 13.2023C81.8347 12.4732 80.8713 12.1086 79.6474 12.1086ZM93.5176 28.0841V8.55414H98.322L98.5173 12.2258C99.1162 10.8717 99.9886 9.85614 101.134 9.1791C102.306 8.50205 103.647 8.16353 105.158 8.16353C107.189 8.16353 108.868 8.76245 110.196 9.9603C111.524 11.1321 112.188 12.9028 112.188 15.2725V28.0841H106.837V16.7958C106.837 15.1292 106.499 13.9835 105.822 13.3585C105.171 12.7075 104.337 12.382 103.322 12.382C102.593 12.382 101.876 12.5643 101.173 12.9289C100.496 13.2674 99.9365 13.8272 99.4938 14.6084C99.0772 15.3896 98.8689 16.4312 98.8689 17.7332V28.0841H93.5176ZM126.568 8.16353C129.172 8.16353 131.19 8.72339 132.622 9.84312C134.08 10.9628 135.044 12.3169 135.513 13.9054L130.513 15.7021C129.992 13.3325 128.703 12.1477 126.646 12.1477C125.162 12.1477 124.003 12.6685 123.17 13.7101C122.362 14.7517 121.959 16.301 121.959 18.3582C121.959 20.4414 122.375 21.9908 123.209 23.0063C124.068 23.9959 125.227 24.4906 126.685 24.4906C128.951 24.4906 130.305 23.3318 130.747 21.0143L135.591 22.5767C135.148 24.3214 134.159 25.7405 132.622 26.8342C131.112 27.9279 129.146 28.4747 126.724 28.4747C124.693 28.4747 122.909 28.0711 121.373 27.2639C119.863 26.4566 118.691 25.2979 117.858 23.7875C117.024 22.2772 116.608 20.4544 116.608 18.3191C116.608 16.1839 117.024 14.3611 117.858 12.8507C118.717 11.3404 119.889 10.1816 121.373 9.3744C122.883 8.56715 124.615 8.16353 126.568 8.16353ZM157.611 8.55414L149.721 29.295C149.096 31.0657 148.393 32.4719 147.612 33.5135C146.857 34.5811 145.971 35.3363 144.956 35.779C143.966 36.2477 142.781 36.482 141.401 36.482C140.386 36.482 139.448 36.3649 138.589 36.1305C137.756 35.8961 137.027 35.5706 136.402 35.154L137.534 31.2871C138.446 32.0162 139.591 32.3807 140.972 32.3807C141.727 32.3807 142.365 32.2245 142.886 31.912C143.406 31.5995 143.849 30.9746 144.214 30.0371L144.878 28.3576L142.729 23.2798L136.753 8.55414H142.69L146.401 20.2721L147.416 24.1781L148.627 20.0378L152.182 8.55414H157.611Z" fill="#373737"/>
</svg>
