<svg width="158" height="37" viewBox="0 0 158 37" fill="none" xmlns="http://www.w3.org/2000/svg">
<path d="M9.96036 2.30438C13.9966 2.30438 17.1214 3.4241 19.3348 5.66354C21.5482 7.90298 22.6549 11.0799 22.6549 15.1942C22.6549 19.3085 21.5482 22.4854 19.3348 24.7248C17.1214 26.9643 13.9966 28.084 9.96036 28.084H5.98904e-05V2.30438H9.96036ZM9.68694 23.7874C12.1347 23.7874 13.9705 23.0583 15.1944 21.6C16.4443 20.1157 17.0693 17.9805 17.0693 15.1942C17.0693 12.4079 16.4443 10.2856 15.1944 8.8274C13.9705 7.34312 12.1347 6.60098 9.68694 6.60098H5.39034V23.7874H9.68694ZM30.1083 5.74166C27.8949 5.74166 26.7882 4.7912 26.7882 2.89028C26.7882 0.963322 27.8949 -0.000158233 30.1083 -0.000158233C32.3217 -0.000158233 33.4284 0.963322 33.4284 2.89028C33.4284 4.7912 32.3217 5.74166 30.1083 5.74166ZM32.7644 8.55398V28.084H27.4132V8.55398H32.7644ZM50.0378 24.4123C52.147 24.4123 53.7745 24.868 54.9203 25.7794C56.066 26.6908 56.6389 27.9668 56.6389 29.6073C56.6389 31.1176 56.2092 32.3806 55.3499 33.3961C54.4906 34.4117 53.2797 35.1799 51.7173 35.7007C50.181 36.2215 48.3972 36.4819 46.3661 36.4819C43.007 36.4819 40.5462 36.0132 38.9838 35.0757C37.4474 34.1383 36.6792 32.9144 36.6792 31.4041C36.6792 30.5187 36.9527 29.7375 37.4995 29.0605C38.0724 28.4095 38.9838 27.9538 40.2337 27.6934C38.489 27.0424 37.6167 25.8185 37.6167 24.0217C37.6167 23.1364 37.8771 22.3552 38.3979 21.6781C38.9447 21.0011 39.6869 20.4933 40.6243 20.1548C38.5671 19.009 37.5386 17.2253 37.5386 14.8036C37.5386 12.7464 38.3328 11.1319 39.9212 9.96014C41.5097 8.7623 43.684 8.16338 46.4442 8.16338C48.0066 8.16338 49.4128 8.3717 50.6627 8.78834C50.845 7.43426 51.3918 6.2885 52.3032 5.35106C53.2146 4.38758 54.4515 3.90584 56.0139 3.90584C56.066 3.90584 56.1311 3.90584 56.2092 3.90584C56.2874 3.90584 56.3655 3.90584 56.4436 3.90584L57.0686 7.73372C56.8602 7.70768 56.6259 7.69466 56.3655 7.69466C55.376 7.69466 54.5817 7.88996 53.9828 8.28056C53.3839 8.64512 53.0063 9.17894 52.8501 9.88202C54.5166 11.0538 55.3499 12.6943 55.3499 14.8036C55.3499 16.8347 54.5427 18.4492 52.9282 19.647C51.3398 20.8188 49.1784 21.4047 46.4442 21.4047C45.2464 21.4047 44.1527 21.3006 43.1632 21.0922C42.5643 21.2485 42.1346 21.4828 41.8742 21.7953C41.6399 22.0818 41.5227 22.4073 41.5227 22.7718C41.5227 23.8655 42.356 24.4123 44.0225 24.4123H50.0378ZM46.4442 11.5225C45.4026 11.5225 44.5433 11.809 43.8663 12.3819C43.1892 12.9547 42.8507 13.749 42.8507 14.7645C42.8507 15.7801 43.1892 16.5873 43.8663 17.1862C44.5433 17.7591 45.4026 18.0456 46.4442 18.0456C47.4598 18.0456 48.3061 17.7591 48.9831 17.1862C49.6602 16.5873 49.9987 15.7801 49.9987 14.7645C49.9987 13.749 49.6602 12.9547 48.9831 12.3819C48.3061 11.809 47.4598 11.5225 46.4442 11.5225ZM46.4052 32.8102C48.4103 32.8102 49.8945 32.5629 50.858 32.0681C51.8475 31.5994 52.3423 31.0265 52.3423 30.3495C52.3423 29.8547 52.147 29.4511 51.7564 29.1386C51.3658 28.8522 50.6627 28.7089 49.6472 28.7089H43.046C42.4211 28.7089 41.9003 28.8652 41.4836 29.1777C41.093 29.5162 40.8977 29.9458 40.8977 30.4666C40.8977 31.1958 41.3795 31.7686 42.3429 32.1853C43.3325 32.6019 44.6865 32.8102 46.4052 32.8102ZM62.5693 5.74166C60.3559 5.74166 59.2492 4.7912 59.2492 2.89028C59.2492 0.963322 60.3559 -0.000158233 62.5693 -0.000158233C64.7827 -0.000158233 65.8894 0.963322 65.8894 2.89028C65.8894 4.7912 64.7827 5.74166 62.5693 5.74166ZM65.2254 8.55398V28.084H59.8742V8.55398H65.2254ZM79.9599 28.4746C76.8871 28.4746 74.4263 27.5892 72.5775 25.8185C70.7287 24.0217 69.8042 21.5219 69.8042 18.319C69.8042 16.1837 70.2209 14.3609 71.0542 12.8506C71.8874 11.3403 73.0462 10.1815 74.5305 9.37424C76.0408 8.567 77.7595 8.16338 79.6864 8.16338C81.6655 8.16338 83.3451 8.567 84.7252 9.37424C86.1053 10.1554 87.1599 11.2361 87.889 12.6162C88.6182 13.9703 88.9827 15.5197 88.9827 17.2644C88.9827 17.7852 88.9697 18.2799 88.9437 18.7486C88.9176 19.2174 88.8786 19.634 88.8265 19.9986H75.0383C75.2466 21.5089 75.7674 22.6416 76.6007 23.3968C77.46 24.1259 78.5667 24.4905 79.9208 24.4905C81.0666 24.4905 81.991 24.2691 82.6941 23.8264C83.3971 23.3838 83.944 22.7718 84.3346 21.9906L88.5921 23.6311C87.9672 25.1675 86.8735 26.3653 85.3111 27.2247C83.7487 28.0579 81.9649 28.4746 79.9599 28.4746ZM79.6474 12.1084C77.1215 12.1084 75.5982 13.5016 75.0773 16.2879H83.8659C83.7096 14.9338 83.2669 13.9052 82.5378 13.2021C81.8347 12.473 80.8713 12.1084 79.6474 12.1084Z" fill="#FF5300"/>
<path d="M93.5176 28.084V8.55398H98.322L98.5173 12.2256C99.1162 10.8715 99.9886 9.85598 101.134 9.17894C102.306 8.5019 103.647 8.16338 105.158 8.16338C107.189 8.16338 108.868 8.7623 110.196 9.96014C111.524 11.1319 112.188 12.9027 112.188 15.2723V28.084H106.837V16.7956C106.837 15.1291 106.499 13.9833 105.822 13.3584C105.171 12.7074 104.337 12.3819 103.322 12.3819C102.593 12.3819 101.876 12.5641 101.173 12.9287C100.496 13.2672 99.9365 13.8271 99.4938 14.6083C99.0772 15.3895 98.8689 16.4311 98.8689 17.7331V28.084H93.5176ZM126.568 8.16338C129.172 8.16338 131.19 8.72324 132.622 9.84296C134.08 10.9627 135.044 12.3168 135.513 13.9052L130.513 15.702C129.992 13.3323 128.703 12.1475 126.646 12.1475C125.162 12.1475 124.003 12.6683 123.17 13.7099C122.362 14.7515 121.959 16.3009 121.959 18.358C121.959 20.4412 122.375 21.9906 123.209 23.0062C124.068 23.9957 125.227 24.4905 126.685 24.4905C128.951 24.4905 130.305 23.3317 130.747 21.0141L135.591 22.5765C135.148 24.3212 134.159 25.7404 132.622 26.8341C131.112 27.9277 129.146 28.4746 126.724 28.4746C124.693 28.4746 122.909 28.071 121.373 27.2637C119.863 26.4565 118.691 25.2977 117.858 23.7874C117.024 22.2771 116.608 20.4543 116.608 18.319C116.608 16.1837 117.024 14.3609 117.858 12.8506C118.717 11.3403 119.889 10.1815 121.373 9.37424C122.883 8.567 124.615 8.16338 126.568 8.16338ZM157.611 8.55398L149.721 29.2948C149.096 31.0656 148.393 32.4717 147.612 33.5133C146.857 34.581 145.971 35.3361 144.956 35.7788C143.966 36.2475 142.781 36.4819 141.401 36.4819C140.386 36.4819 139.448 36.3647 138.589 36.1303C137.756 35.896 137.027 35.5705 136.402 35.1538L137.534 31.2869C138.446 32.016 139.591 32.3806 140.972 32.3806C141.727 32.3806 142.365 32.2243 142.886 31.9119C143.406 31.5994 143.849 30.9744 144.214 30.037L144.878 28.3574L142.729 23.2796L136.753 8.55398H142.69L146.401 20.272L147.416 24.178L148.627 20.0376L152.182 8.55398H157.611Z" fill="#FFF7F4"/>
</svg>
