<svg width="60" height="60" viewBox="0 0 60 60" fill="none" xmlns="http://www.w3.org/2000/svg">
<g filter="url(#filter0_d_141_650)">
<rect x="10" y="9" width="40" height="40" fill="white"/>
</g>
<path d="M31.31 37.4002C29.9877 37.6067 28.6353 37.4981 27.363 37.0832C26.0906 36.6683 24.9341 35.9588 23.9878 35.0124C23.0414 34.0661 22.3319 32.9096 21.917 31.6372C21.5021 30.3648 21.3935 29.0125 21.6 27.6902C21.0788 26.6987 20.8883 25.5664 21.0564 24.459C21.2246 23.3515 21.7426 22.3268 22.5346 21.5348C23.3267 20.7427 24.3514 20.2247 25.4588 20.0566C26.5663 19.8884 27.6985 20.0789 28.69 20.6002C30.0123 20.3936 31.3647 20.5022 32.6371 20.9171C33.9095 21.3321 35.0659 22.0416 36.0123 22.9879C36.9586 23.9343 37.6681 25.0907 38.0831 26.3631C38.498 27.6355 38.6066 28.9879 38.4 30.3102C38.9213 31.3016 39.1118 32.4339 38.9436 33.5413C38.7755 34.6488 38.2575 35.6735 37.4654 36.4655C36.6734 37.2576 35.6487 37.7756 34.5412 37.9437C33.4337 38.1119 32.3015 37.9214 31.31 37.4002ZM30.052 34.1562H30.012C32.884 34.1562 34.315 32.7702 34.315 30.9132C34.315 29.7152 33.764 28.4422 31.589 27.9552L29.606 27.5152C28.851 27.3432 27.984 27.1152 27.984 26.4002C27.984 25.6852 28.604 25.1872 29.708 25.1872C31.938 25.1872 31.735 26.7152 32.839 26.7152C33.415 26.7152 33.932 26.3732 33.932 25.7852C33.932 24.4152 31.735 23.3852 29.876 23.3852C27.855 23.3852 25.703 24.2442 25.703 26.5292C25.703 27.6272 26.097 28.7992 28.263 29.3422L30.952 30.0132C31.768 30.2152 31.97 30.6722 31.97 31.0852C31.97 31.7722 31.286 32.4432 30.052 32.4432C27.635 32.4432 27.974 30.5862 26.678 30.5862C26.098 30.5862 25.675 30.9842 25.675 31.5572C25.675 32.6712 27.027 34.1552 30.052 34.1552V34.1562Z" fill="#FF5300"/>
<defs>
<filter id="filter0_d_141_650" x="0" y="0" width="60" height="60" filterUnits="userSpaceOnUse" color-interpolation-filters="sRGB">
<feFlood flood-opacity="0" result="BackgroundImageFix"/>
<feColorMatrix in="SourceAlpha" type="matrix" values="0 0 0 0 0 0 0 0 0 0 0 0 0 0 0 0 0 0 127 0" result="hardAlpha"/>
<feOffset dy="1"/>
<feGaussianBlur stdDeviation="5"/>
<feColorMatrix type="matrix" values="0 0 0 0 0 0 0 0 0 0 0 0 0 0 0 0 0 0 0.1 0"/>
<feBlend mode="normal" in2="BackgroundImageFix" result="effect1_dropShadow_141_650"/>
<feBlend mode="normal" in="SourceGraphic" in2="effect1_dropShadow_141_650" result="shape"/>
</filter>
</defs>
</svg>
